PathFileType	4	(X/Y/Z)	RBDS002\RBDS002runT45.trc
DataRate	CameraRate	NumFrames	NumMarkers	Units	OrigDataRate	OrigDataStartFrame	OrigNumFrames
150.000000	150.000000	4	33	mm	150.000000	0	4500
Frame#	Time	L.ASIS			L.Heel.Bottom			L.Heel.Lateral			L.Heel.Top			L.Iliac.Crest			L.MT1			L.MT5			L.PSIS			L.Shank.Bottom.Lateral			L.Shank.Bottom.Medial			L.Shank.Top.Lateral			L.Shank.Top.Medial			L.Thigh.Bottom.Lateral			L.Thigh.Bottom.Medial			L.Thigh.Top.Lateral			L.Thigh.Top.Medial			R.ASIS			R.ASY			R.Heel.Bottom			R.Heel.Lateral			R.Heel.Top			R.Iliac.Crest			R.MT1			R.MT5			R.PSIS			R.Shank.Bottom.Lateral			R.Shank.Bottom.Medial			R.Shank.Top.Lateral			R.Shank.Top.Medial			R.Thigh.Bottom.Lateral			R.Thigh.Bottom.Medial			R.Thigh.Top.Lateral			R.Thigh.Top.Medial			
		X1	Y1	Z1	X2	Y2	Z2	X3	Y3	Z3	X4	Y4	Z4	X5	Y5	Z5	X6	Y6	Z6	X7	Y7	Z7	X8	Y8	Z8	X9	Y9	Z9	X10	Y10	Z10	X11	Y11	Z11	X12	Y12	Z12	X13	Y13	Z13	X14	Y14	Z14	X15	Y15	Z15	X16	Y16	Z16	X17	Y17	Z17	X18	Y18	Z18	X19	Y19	Z19	X20	Y20	Z20	X21	Y21	Z21	X22	Y22	Z22	X23	Y23	Z23	X24	Y24	Z24	X25	Y25	Z25	X26	Y26	Z26	X27	Y27	Z27	X28	Y28	Z28	X29	Y29	Z29	X30	Y30	Z30	X31	Y31	Z31	X32	Y32	Z32	X33	Y33	Z33	

1	0	2385.664548066466	1021.485702864252	913.5905718991348	1617.653379513973	415.2480230943749	969.3810335506261	1622.565177536473	385.2302335261924	921.3570386725978	1666.406752252056	410.1715950729017	959.3825757081046	2344.917890900561	1120.356162694691	861.9369392928231	1661.380494966005	190.4534448809902	1003.591829156359	1625.953392797644	217.8085322977323	897.4484286812803	2209.200710398156	1093.700747535029	957.03684422834	1738.565019734029	393.5170378905352	900.2795936209252	1720.979434737607	423.2845742831241	938.5180641235733	1799.198409374523	444.636589522095	883.6576060907174	1783.860766453124	477.8043062634679	922.7242027961153	2086.583077472747	657.1965795351916	870.9532863959524	2048.552408311447	679.3949437469761	930.4248383052441	2124.044053483785	760.6977248303331	860.9958482224265	2090.782540402701	780.5660080038497	917.7255339014184	2390.127045024382	1049.839158398982	1117.52501688006	2799.202595129627	231.2016234142598	1075.65792906284	2638.723874680728	120.1352560214682	1057.086879074038	2657.16632940748	135.0657040044846	1098.786642911002	2634.553312625109	171.0200802256263	1064.263090714308	2284.255530804181	1133.573965588395	1165.710061846455	2856.669591896661	210.4255842587528	1028.575461110471	2829.427542734237	176.7738648849868	1132.878958365123	2204.30743539994	1095.41634759367	1050.232967154048	2654.261763476122	279.9804005262301	1126.810886555739	2614.497418762838	272.7241603949155	1090.299108670553	2622.48482360659	352.7047990135772	1144.000826689854	2584.881852615337	345.5817694541091	1105.508955464756	2509.775752522236	696.5594820127877	1155.87229845169	2456.819817527799	660.3987731619495	1118.89943960894	2436.553063776583	776.4119796569518	1178.853033192683	2385.935510268551	739.8724187688649	1146.81082924995	
2	0.006666666666666667	2385.754902392688	1022.268867867719	911.3771656992765	1618.889401949295	437.3049996962376	971.6408167654023	1622.122332591193	406.9687304200856	923.7302728640433	1667.105146598733	429.4629983013553	961.0364354262053	2339.779894332983	1122.443878916107	860.556458662558	1649.927657046876	211.0105461324215	1004.992229426826	1615.939615462645	240.7748930305812	899.1278716535301	2208.991739839185	1093.163951893074	958.6159771705454	1737.540404020393	407.744068536759	901.8035897176777	1721.429151669688	438.9037693540101	939.2383295497064	1800.634591524941	455.2663694967108	884.9285528210967	1787.0616063234	489.5638333490095	923.4211935718324	2093.784918596096	652.0838887342032	871.2309590224003	2055.829055982034	674.3880346366976	930.6657545587627	2129.52998424749	756.0094158592674	859.8042436134788	2096.353243147321	776.008453843449	916.5501513770605	2391.545933092435	1049.64884023985	1114.981856494498	2803.602307080272	230.4450017060117	1074.588229916513	2643.471378529081	118.2720926345753	1057.405561492894	2662.421151910287	133.1377264489484	1098.919189809303	2639.047234184578	169.1306888107286	1064.823073455675	2286.329493765727	1132.091606473361	1166.227783063519	2860.680311600375	210.2359007695736	1026.612463611038	2835.10908630225	175.7420974856502	1131.070454032079	2204.497094016054	1094.67355372215	1050.607308773437	2657.752759897882	277.8989067978163	1127.16807840842	2617.831962566373	269.9310948011043	1090.859061773191	2624.45110257436	349.8559897069418	1144.935800425759	2586.819157581267	342.1097361355201	1106.464762805166	2507.603473513663	692.4457238997495	1157.823475808648	2454.72578640041	657.3985129937111	1119.701473815832	2434.606177678106	772.4065813056479	1181.587800817697	2384.234258649686	737.1419136136944	1147.798350198184	
3	0.01333333333333333	2385.866091044724	1022.87223259252	909.2573669972109	1620.817645869216	459.135656381565	973.8893906330808	1622.375635897472	428.528036786205	926.0684459849443	1668.45398372036	448.5366898957143	962.7216090089717	2334.84949924156	1124.260851799168	859.1853119756387	1639.142926563737	231.5321547489899	1006.395206692714	1606.64907864773	263.6684737395436	900.7973658393072	2208.813217291206	1092.440492128495	960.0833430178042	1737.064005929785	421.8025177969749	903.3270439953761	1722.447914502485	454.3358840962192	939.958368807209	1802.555430588815	465.6908067061989	886.1792767910332	1790.762657055233	501.111468855612	924.0827212591206	2101.120945858574	646.8184043594832	871.5149821290869	2063.214024127796	669.2097266642703	930.9173414427499	2135.110207971175	751.1628866760316	858.6662682904089	2101.990116944093	771.2669881059302	915.4217727019861	2392.902177350956	1049.363410467059	1112.567772421074	2807.025765187099	229.0507987325984	1073.73409326684	2647.037607828015	116.1759756037526	1057.72495418863	2666.462349325411	130.9155090205272	1099.081799535139	2642.468943602425	167.0039300144335	1065.399215344421	2288.277952007616	1130.541231086007	1166.724265761735	2863.699358659	209.2646362313693	1024.919155943999	2839.567341214218	173.986763205174	1129.491930608119	2204.676606453369	1093.758662556599	1050.936376217259	2660.337811205085	275.5712717409962	1127.585360655111	2620.305312768253	266.9909734009169	1091.413713940265	2625.71009933012	346.8669105248641	1145.849517061482	2588.079829588745	338.583273017336	1107.352685535196	2505.574422155869	688.4402622277862	1159.660104911787	2452.752396293311	654.3925284166147	1120.518830489913	2432.792965004235	768.5081274527817	1184.135719268927	2382.631417815201	734.4101518120642	1148.753664207748	
4	0.02	2386.037977146992	1023.142801066033	907.3163443326541	1624.035669402665	480.54163436914	976.1334891997933	1623.934854190979	449.7572369118746	928.3540131727503	1671.015299855299	467.2098615218083	964.4786699091845	2330.355295734839	1125.564330686999	857.840950273096	1629.635409711578	251.9926337737668	1007.790478793255	1598.74576266215	286.43712661604	902.4425779413792	2208.70743720451	1091.337446278414	961.3368038473128	1737.617338882266	435.5604441076858	904.8574332023139	1724.539308632035	469.4272979059347	940.6911735545935	1805.382474024148	475.7438921575824	887.4016176798391	1795.402128317462	512.2685942304913	924.6917769056352	2108.678778541782	641.2626416847943	871.8186470521251	2070.776356128694	663.6867484010839	931.197937354777	2140.844970020994	746.0198061603996	857.642019771517	2107.73489438361	766.1764520236634	914.3981277987214	2394.161357002561	1048.883305747606	1110.403818138112	2808.573436927943	226.4348337925549	1073.27015990082	2648.352738438334	113.5995137097998	1058.056032666949	2668.192383597276	128.1106935922052	1099.307569790521	2643.842272676029	164.3917941308187	1066.003464664348	2289.99553353997	1128.847453763167	1167.176796111306	2864.825639030399	206.8049455590742	1023.727934733503	2841.703337663304	170.8715963698121	1128.347489123566	2204.845604514288	1092.483700951976	1051.179535872254	2661.213693247943	272.7157723974555	1128.097933277511	2621.13463632502	263.7157517002444	1091.961489131988	2625.644441736714	343.5509063199436	1146.719205179291	2588.054703548576	334.9004884989967	1108.129671514331	2503.787518025265	684.5756653164746	1161.26709050095	2450.981183803074	651.3313757313618	1121.335712044199	2431.215590761579	764.7568456748571	1186.319132432569	2381.198297793063	731.6332795573386	1149.627314795826	
